<svg width="600" height="109" viewBox="0 0 600 109" fill="none" xmlns="http://www.w3.org/2000/svg">
<path d="M152.536 107.563H152.682C157.604 107.564 162.502 106.891 167.242 105.564C168.737 105.127 170.232 104.593 171.707 104.069C173.736 103.313 175.716 102.434 177.638 101.438H177.687L178.114 101.215L178.405 101.06L178.56 100.972C185.949 96.8885 192.281 91.1346 197.052 84.1695L197.159 84.0142L197.431 83.6162L197.596 83.3541C203.195 74.7981 206.263 64.835 206.449 54.6117V53.3886C206.449 53.0877 206.449 52.7965 206.449 52.4955V52.2529C206.297 46.5316 205.229 40.8716 203.284 35.4889V35.3918L203.168 35.0909C203.08 34.8579 202.993 34.6346 202.915 34.4114C200.959 29.4168 198.259 24.7467 194.907 20.5595C190.313 15.0559 184.819 10.372 178.658 6.70758C176.615 5.5774 174.501 4.58193 172.329 3.72753C165.145 1.17458 157.768 0.66011 148.061 0.203881L145.964 0.106811C144.159 0.0291548 143.052 3.38003e-05 141.256 3.38003e-05H137.781C135.52 3.38003e-05 132.423 3.38003e-05 127.754 3.38003e-05H113.659L124.492 6.3193C124.567 6.35886 124.638 6.4043 124.706 6.4552L164.116 29.2084C167.315 31.0331 170.107 33.4924 172.32 36.4353C174.534 39.3783 176.122 42.7427 176.988 46.3219C177.61 48.9757 177.82 51.7096 177.609 54.4272C177.546 58.716 176.318 62.907 174.056 66.5513C171.932 70.024 169.007 72.9381 165.527 75.0505C162.047 77.163 158.112 78.4125 154.05 78.6948C153.083 78.7994 152.111 78.8513 151.138 78.8501C146.534 78.8482 142.01 77.6436 138.014 75.3556H137.946L83.82 44.0504C80.8594 42.3423 77.3415 41.8802 74.0401 42.7658C70.7388 43.6515 67.9245 45.8123 66.2164 48.7729C64.5082 51.7335 64.0461 55.2515 64.9318 58.5528C65.8174 61.8541 67.9782 64.6684 70.9388 66.3766L133.132 102.293C139.031 105.708 145.719 107.525 152.536 107.563V107.563ZM76.928 3.38003e-05C69.8475 -0.00792891 62.8359 1.39108 56.3007 4.11581C43.7396 9.51048 33.6047 19.3413 27.83 31.7322C24.7601 38.5413 23.1562 45.9196 23.1221 53.3886V54.1846C23.2012 68.3298 28.8595 81.8722 38.8672 91.8691C48.875 101.866 62.4236 107.509 76.5689 107.573H77.3163C78.6365 107.573 79.976 107.573 81.2865 107.437C85.1649 107.135 88.9972 106.399 92.7116 105.243C96.3959 104.105 99.9465 102.572 103.302 100.671L64.1439 78.0153C59.6004 75.4002 55.9353 71.4954 53.6129 66.7955C51.2905 62.0957 50.4153 56.8122 51.0983 51.6146C51.7813 46.4169 53.9916 41.5389 57.4494 37.5985C60.9071 33.6581 65.4565 30.8327 70.5214 29.4802C72.7726 28.8778 75.0927 28.5711 77.4231 28.5678C82.0568 28.5771 86.6064 29.8057 90.6149 32.1302L144.761 63.3868C146.227 64.2326 147.845 64.7814 149.523 65.0018C151.201 65.2222 152.906 65.1099 154.541 64.6714C156.175 64.2329 157.707 63.4767 159.05 62.446C160.392 61.4153 161.518 60.1303 162.364 58.6643C163.21 57.1984 163.759 55.5802 163.979 53.9022C164.2 52.2241 164.087 50.5191 163.649 48.8845C163.21 47.2498 162.454 45.7175 161.423 44.3751C160.393 43.0327 159.108 41.9065 157.642 41.0607L94.8084 4.85354C89.3767 1.69644 83.2105 0.0226727 76.928 3.38003e-05V3.38003e-05ZM214.214 85.0334C213.685 85.4726 213.015 85.7039 212.328 85.6839C211.641 85.664 210.984 85.3942 210.482 84.9251C209.979 84.456 209.665 83.8198 209.598 83.1357C209.531 82.4516 209.716 81.7665 210.118 81.2089C215.669 73.1234 218.64 63.5457 218.64 53.738C218.64 43.9303 215.669 34.3527 210.118 26.2672C209.724 25.709 209.546 25.0271 209.617 24.3478C209.687 23.6684 210.001 23.0376 210.501 22.5721C211.001 22.1066 211.653 21.838 212.335 21.816C213.018 21.794 213.685 22.02 214.214 22.4523C218.962 26.185 222.807 30.9396 225.463 36.3627C228.12 41.7858 229.521 47.738 229.561 53.7769C229.515 59.8106 228.112 65.7566 225.455 71.1741C222.799 76.5916 218.957 81.3417 214.214 85.0723V85.0334ZM0 53.7769C0.046131 47.7456 1.44859 41.802 4.1035 36.3863C6.75841 30.9707 10.5977 26.2217 15.3371 22.4912C15.8677 22.0747 16.5298 21.8618 17.2037 21.891C17.8775 21.9202 18.5187 22.1896 19.0113 22.6505C19.5038 23.1114 19.8151 23.7333 19.889 24.4037C19.9629 25.0742 19.7944 25.749 19.414 26.306C13.8513 34.387 10.8729 43.9664 10.8729 53.7769C10.8729 63.5874 13.8513 73.1667 19.414 81.2477C19.8032 81.8077 19.9774 82.4892 19.9047 83.1673C19.832 83.8454 19.5173 84.4745 19.0183 84.9393C18.5193 85.4041 17.8694 85.6734 17.1879 85.6978C16.5064 85.7222 15.839 85.5001 15.308 85.0723C10.5737 81.3369 6.73995 76.5849 4.09021 71.1678C1.44047 65.7507 0.0425969 59.8071 0 53.7769H0ZM318.924 57.6597C319.3 58.433 319.519 59.273 319.57 60.1315C319.62 60.9899 319.5 61.8498 319.217 62.6618C318.934 63.4737 318.493 64.2216 317.919 64.8625C317.346 65.5033 316.651 66.0245 315.876 66.396C314.993 66.8262 314.023 67.0487 313.041 67.0464C311.811 67.0475 310.604 66.701 309.562 66.0467C308.52 65.3924 307.683 64.4569 307.149 63.348L287.502 22.5785L267.389 63.1927C266.617 64.7451 265.26 65.9271 263.616 66.4787C261.972 67.0303 260.176 66.9062 258.624 66.1339C257.071 65.3616 255.889 64.0042 255.338 62.3603C254.786 60.7165 254.91 58.9209 255.683 57.3685L281.717 4.76618C282.256 3.68103 283.086 2.767 284.115 2.12598C285.143 1.48497 286.329 1.14215 287.541 1.13575C288.76 1.14729 289.952 1.4998 290.981 2.15339C292.01 2.80698 292.836 3.73558 293.365 4.83412L318.924 57.6597ZM554.581 3.12569C553.968 2.51081 553.239 2.02296 552.437 1.69009C551.635 1.35723 550.775 1.18588 549.907 1.18588C549.039 1.18588 548.179 1.35723 547.377 1.69009C546.575 2.02296 545.846 2.51081 545.233 3.12569C544.61 3.73402 544.117 4.46223 543.783 5.26637C543.45 6.0705 543.282 6.9339 543.292 7.80447V44.4096L502.066 3.1354C501.168 2.16947 499.989 1.5115 498.696 1.25527C497.402 0.999046 496.061 1.15765 494.863 1.70847C493.631 2.1603 492.572 2.98848 491.837 4.07565C491.102 5.16281 490.727 6.4538 490.767 7.76564V60.4068C490.733 61.2955 490.879 62.182 491.195 63.0132C491.512 63.8443 491.993 64.6031 492.61 65.2439C493.226 65.8848 493.966 66.3946 494.784 66.7428C495.603 67.091 496.483 67.2705 497.373 67.2705C498.262 67.2705 499.142 67.091 499.961 66.7428C500.779 66.3946 501.519 65.8848 502.136 65.2439C502.752 64.6031 503.233 63.8443 503.55 63.0132C503.867 62.182 504.012 61.2955 503.978 60.4068V23.7822L545.233 65.037C545.837 65.6623 546.564 66.1571 547.367 66.491C548.17 66.8249 549.032 66.9908 549.902 66.9784C550.774 66.9974 551.64 66.8346 552.446 66.5003C553.251 66.1661 553.979 65.6677 554.581 65.037C555.204 64.4312 555.698 63.7048 556.032 62.9021C556.365 62.0994 556.532 61.2372 556.522 60.3679V7.76564C556.526 6.90159 556.356 6.04558 556.023 5.24848C555.689 4.45138 555.199 3.72948 554.581 3.12569V3.12569ZM467.936 10.7942C464.879 7.73125 461.247 5.30123 457.25 3.64324C453.252 1.98525 448.967 1.13183 444.639 1.13183C440.312 1.13183 436.026 1.98525 432.029 3.64324C428.031 5.30123 424.4 7.73125 421.342 10.7942C418.234 13.817 415.774 17.442 414.113 21.4475C412.452 25.4531 411.626 29.7553 411.684 34.0911C411.623 38.4272 412.448 42.7302 414.109 46.7362C415.77 50.7422 418.231 54.3668 421.342 57.3879C424.4 60.4509 428.031 62.8809 432.029 64.5389C436.026 66.1969 440.312 67.0503 444.639 67.0503C448.967 67.0503 453.252 66.1969 457.25 64.5389C461.247 62.8809 464.879 60.4509 467.936 57.3879C471.047 54.3668 473.509 50.7422 475.17 46.7362C476.83 42.7302 477.656 38.4272 477.595 34.0911C477.653 29.7553 476.826 25.4531 475.166 21.4475C473.505 17.442 471.045 13.817 467.936 10.7942V10.7942ZM458.588 48.0206C455.834 50.7775 452.323 52.6556 448.501 53.4175C444.679 54.1794 440.717 53.7908 437.116 52.3008C433.514 50.8109 430.436 48.2865 428.269 45.0469C426.103 41.8073 424.945 37.9981 424.944 34.1008C424.885 31.4769 425.352 28.8678 426.316 26.4266C427.28 23.9855 428.722 21.7615 430.557 19.8852C432.392 18.0089 434.583 16.5181 437.002 15.5003C439.421 14.4825 442.02 13.9582 444.644 13.9582C447.269 13.9582 449.867 14.4825 452.286 15.5003C454.705 16.5181 456.896 18.0089 458.732 19.8852C460.567 21.7615 462.009 23.9855 462.972 26.4266C463.936 28.8678 464.403 31.4769 464.344 34.1008C464.376 36.6896 463.882 39.2578 462.892 41.6504C461.903 44.0429 460.439 46.2099 458.588 48.0206V48.0206ZM391.93 14.3858C392.804 14.3988 393.672 14.2333 394.479 13.8995C395.287 13.5656 396.018 13.0705 396.628 12.4444C397.239 11.8302 397.721 11.0996 398.044 10.2959C398.368 9.49226 398.527 8.63184 398.512 7.76564C398.518 6.89686 398.35 6.03564 398.016 5.23342C397.683 4.4312 397.191 3.70445 396.57 3.09657C395.965 2.47008 395.237 1.97454 394.432 1.64061C393.627 1.30667 392.763 1.14145 391.891 1.15517H339.376C338.505 1.13617 337.638 1.29898 336.833 1.63323C336.027 1.96748 335.3 2.46584 334.698 3.09657C334.074 3.7024 333.581 4.42877 333.247 5.23147C332.913 6.03416 332.746 6.89638 332.756 7.76564C332.766 8.26634 332.831 8.76442 332.95 9.25081C332.837 9.7411 332.778 10.2425 332.776 10.7457V48.0789C332.778 48.453 332.81 48.8263 332.873 49.1952C333.385 54.0759 335.681 58.5956 339.322 61.8866C342.962 65.1777 347.69 67.0083 352.597 67.0269H391.959C392.827 67.027 393.686 66.8554 394.487 66.5223C395.288 66.1891 396.015 65.7009 396.627 65.0856C397.238 64.4703 397.722 63.7402 398.051 62.9373C398.379 62.1343 398.546 61.2743 398.541 60.4068C398.548 59.5365 398.379 58.6738 398.046 57.8699C397.712 57.0661 397.22 56.3377 396.599 55.728C395.992 55.1033 395.264 54.609 394.46 54.2752C393.655 53.9414 392.791 53.7751 391.92 53.7866H352.568C350.828 53.784 349.159 53.0922 347.928 51.8624C346.696 50.6326 346.002 48.9651 345.997 47.2246V40.6821H379.35C380.655 40.6901 381.932 40.3103 383.02 39.5907C384.109 38.8711 384.958 37.8443 385.462 36.6407C385.965 35.4372 386.1 34.1111 385.848 32.831C385.596 31.5508 384.97 30.3744 384.048 29.4511C383.442 28.8198 382.712 28.3213 381.903 27.9871C381.094 27.653 380.225 27.4904 379.35 27.5097H345.647V14.3858H391.93ZM597.952 49.0787L575.043 37.7409C574.182 37.3148 573.187 37.2483 572.277 37.5559C571.367 37.8636 570.616 38.5202 570.19 39.3814C569.764 40.2425 569.697 41.2377 570.005 42.1479C570.312 43.0581 570.969 43.8088 571.83 44.2349L588.089 52.282L571.743 60.1835C571.131 60.4812 570.614 60.9447 570.252 61.5212C569.89 62.0977 569.697 62.7643 569.695 63.4451C569.692 63.9898 569.815 64.5279 570.054 65.0176C570.26 65.4484 570.55 65.834 570.906 66.1524C571.262 66.4707 571.678 66.7154 572.129 66.8724C572.58 67.0294 573.058 67.0956 573.535 67.0672C574.012 67.0387 574.478 66.9162 574.907 66.7066L597.952 55.5921C598.56 55.2924 599.074 54.8298 599.436 54.2558C599.797 53.6817 599.993 53.0186 600 52.3402V52.3402C600.003 51.6582 599.813 50.9893 599.45 50.4117C599.087 49.8341 598.568 49.3718 597.952 49.0787V49.0787ZM596.408 24.2093H576.839V11.6484C576.834 10.9804 577.028 10.3259 577.397 9.76878C577.765 9.21163 578.292 8.77709 578.909 8.52073C579.526 8.26436 580.205 8.19782 580.86 8.3296C581.515 8.46138 582.116 8.7855 582.586 9.26052V9.26052C582.903 9.56814 583.153 9.93836 583.321 10.3477C583.488 10.7571 583.568 11.1967 583.556 11.6387V19.084C583.54 20.0137 583.888 20.9128 584.527 21.5884V21.5884C584.856 21.9233 585.249 22.1887 585.682 22.3688C586.116 22.5489 586.581 22.64 587.051 22.6368C587.519 22.6426 587.984 22.5526 588.416 22.3724C588.849 22.1921 589.239 21.9253 589.565 21.5884C589.898 21.2602 590.163 20.8688 590.343 20.4371C590.523 20.0054 590.615 19.5421 590.613 19.0743V13.9296C590.613 12.421 591.213 10.9741 592.279 9.90735C593.346 8.84059 594.793 8.24129 596.302 8.24129C596.788 8.26271 597.273 8.18029 597.725 7.99953C598.177 7.81876 598.585 7.54379 598.922 7.19293C599.26 6.8678 599.527 6.47694 599.707 6.04452C599.888 5.61209 599.977 5.14728 599.971 4.67881C599.975 4.21067 599.884 3.74653 599.704 3.31443C599.524 2.88233 599.258 2.49121 598.922 2.1647C598.595 1.83179 598.203 1.56891 597.771 1.39203C597.339 1.21516 596.875 1.12796 596.408 1.13575C593.238 1.07424 590.168 2.24724 587.847 4.40702C587.087 3.60511 586.206 2.92712 585.236 2.39767V2.39767C583.703 1.57006 581.988 1.13955 580.246 1.14546C578.863 1.12448 577.491 1.38568 576.212 1.91308C574.934 2.44048 573.776 3.22302 572.811 4.21288C571.815 5.17585 571.027 6.33216 570.494 7.61081C569.962 8.88946 569.696 10.2635 569.714 11.6484V27.7524C569.707 28.2224 569.796 28.6889 569.977 29.123C570.157 29.5571 570.424 29.9496 570.762 30.2762C571.091 30.6086 571.482 30.8718 571.914 31.0502C572.346 31.2286 572.809 31.3186 573.277 31.3148H596.389C597.331 31.3148 598.235 30.9405 598.901 30.2743C599.567 29.608 599.942 28.7043 599.942 27.7621C599.942 26.8198 599.567 25.9162 598.901 25.2499C598.235 24.5836 597.331 24.2093 596.389 24.2093H596.408ZM262.089 108.282L253.353 84.451H255.945L263.38 105.146L270.826 84.451H273.417L264.613 108.321L262.089 108.282ZM276.446 84.451H278.834V108.321H276.446V84.451ZM298.976 108.282L293.385 98.73H286.697V108.282H284.309V84.451H293.86C295.192 84.4519 296.496 84.8237 297.628 85.5247C298.76 86.2258 299.674 87.2283 300.267 88.4197C300.861 89.6112 301.111 90.9446 300.989 92.2702C300.867 93.5959 300.379 94.8614 299.578 95.9247C298.653 97.1546 297.35 98.0478 295.87 98.4679L301.694 108.321L298.976 108.282ZM286.677 86.6642V96.4877H293.841C294.475 96.4958 295.103 96.3703 295.685 96.1194C296.267 95.8685 296.79 95.4979 297.219 95.0317C298.115 94.0987 298.616 92.8552 298.616 91.5614C298.616 90.2676 298.115 89.0241 297.219 88.0912C296.786 87.6321 296.261 87.2682 295.68 87.0225C295.098 86.7769 294.472 86.6549 293.841 86.6642H286.677ZM319.594 84.451V86.703H312.255V108.321H309.867V86.6642H302.538V84.451H319.594ZM337.94 106.408C336.14 107.908 333.871 108.729 331.528 108.729C329.186 108.729 326.917 107.908 325.117 106.408C324.291 105.608 323.645 104.641 323.221 103.571C322.798 102.502 322.607 101.354 322.661 100.206V84.451H325.049V100.206C325.003 101.038 325.132 101.871 325.426 102.652C325.72 103.432 326.174 104.143 326.757 104.739C328.112 105.82 329.795 106.409 331.528 106.409C333.262 106.409 334.944 105.82 336.299 104.739C336.881 104.142 337.333 103.431 337.627 102.651C337.921 101.871 338.051 101.038 338.008 100.206V84.451H340.396V100.206C340.444 101.348 340.251 102.488 339.827 103.55C339.404 104.613 338.761 105.573 337.94 106.369V106.408ZM360.722 108.35L358.509 102.525H347.181L344.968 108.35H342.444L351.617 84.451H354.073L363.246 108.321L360.722 108.35ZM348.035 100.235H357.655L352.801 87.4408L348.035 100.235ZM368.701 106.059H379.622V108.311H366.313V84.451H368.701V106.059ZM393.94 106.059H405.539V108.311H391.552V84.451H405.365V86.703H393.94V95.1287H404.51V97.3808H393.94V106.059ZM425.973 108.311H423.245L416.761 98.1185L410.286 108.311H407.558L415.46 95.9732L408.092 84.451H410.791L416.79 93.8571L422.798 84.451H425.487L418.159 96.0121L425.973 108.311ZM437.941 84.451C439.931 84.451 441.84 85.2416 443.247 86.6487C444.654 88.0559 445.445 89.9645 445.445 91.9545C445.445 93.9446 444.654 95.8531 443.247 97.2603C441.84 98.6675 439.931 99.4581 437.941 99.4581H431.797V108.321H429.409V84.451H437.941ZM437.941 97.206C438.621 97.2288 439.299 97.1084 439.929 96.8525C440.56 96.5966 441.129 96.2111 441.601 95.7209C442.538 94.6884 443.057 93.344 443.057 91.9497C443.057 90.5553 442.538 89.2109 441.601 88.1785C441.126 87.6929 440.556 87.3111 439.926 87.0571C439.296 86.8032 438.62 86.6826 437.941 86.703H431.797V97.1672L437.941 97.206ZM451.92 106.069H463.519V108.321H449.532V84.451H463.345V86.703H451.92V95.1287H462.49V97.3808H451.92V106.069ZM482.273 108.321L476.682 98.7689H469.994V108.321H467.616V84.451H477.158C478.489 84.4519 479.794 84.8237 480.925 85.5247C482.057 86.2258 482.971 87.2283 483.565 88.4197C484.158 89.6112 484.408 90.9446 484.287 92.2702C484.165 93.5959 483.676 94.8614 482.875 95.9247C481.952 97.1524 480.654 98.0453 479.177 98.4679L485.001 108.321H482.273ZM469.994 86.6642V96.4877H477.158C477.785 96.4903 478.406 96.3622 478.981 96.1115C479.556 95.8608 480.072 95.493 480.497 95.0317C481.393 94.0987 481.894 92.8552 481.894 91.5614C481.894 90.2676 481.393 89.0241 480.497 88.0912C480.064 87.6321 479.539 87.2682 478.958 87.0225C478.376 86.7769 477.75 86.6549 477.119 86.6642H469.994ZM488.437 84.4122H490.825V108.282H488.437V84.4122ZM498.668 106.03H510.259V108.282H496.281V84.451H510.094V86.703H498.649V95.1287H509.22V97.3808H498.649L498.668 106.03ZM529.731 84.4122H532.119V108.282H530.003L516.704 88.8677V108.282H514.316V84.451H516.413L529.712 103.865L529.731 84.4122ZM548.728 108.68C547.067 108.73 545.413 108.438 543.87 107.822C542.327 107.206 540.927 106.279 539.758 105.098C537.487 102.745 536.217 99.6027 536.217 96.3324C536.217 93.0621 537.487 89.9196 539.758 87.567C540.929 86.3895 542.329 85.4649 543.872 84.8504C545.415 84.236 547.068 83.9447 548.728 83.9948C550.858 83.9734 552.955 84.5195 554.804 85.577C556.592 86.5844 558.066 88.0658 559.065 89.8578L556.949 91.0809C556.194 89.6251 555.035 88.4183 553.61 87.6058C552.138 86.7455 550.462 86.2963 548.757 86.3051C546.097 86.3051 543.547 87.3615 541.666 89.242C539.786 91.1225 538.729 93.673 538.729 96.3324C538.729 98.9918 539.786 101.542 541.666 103.423C543.547 105.303 546.097 106.36 548.757 106.36C550.461 106.372 552.137 105.926 553.61 105.069C555.037 104.259 556.197 103.051 556.949 101.594L559.065 102.788C558.079 104.588 556.605 106.075 554.814 107.078C552.954 108.167 550.834 108.734 548.679 108.719L548.728 108.68ZM565.375 106.02H576.965V108.272H562.987V84.451H576.8V86.703H565.327V95.1287H575.897V97.3808H565.327L565.375 106.02ZM588.517 108.719C586.534 108.776 584.58 108.238 582.906 107.175C581.368 106.156 580.218 104.648 579.644 102.894L581.693 101.7C582.07 103.092 582.913 104.311 584.08 105.156C585.403 106.034 586.97 106.469 588.555 106.399C590.027 106.489 591.486 106.075 592.691 105.224C593.167 104.86 593.551 104.387 593.809 103.845C594.067 103.303 594.193 102.708 594.176 102.108C594.207 101.559 594.099 101.011 593.861 100.516C593.624 100.02 593.264 99.5927 592.817 99.2736C591.407 98.4324 589.892 97.7797 588.313 97.3322C586.616 96.8476 584.971 96.1973 583.401 95.3908C582.553 94.9278 581.85 94.2395 581.368 93.4018C580.887 92.5642 580.646 91.6098 580.673 90.6441C580.628 89.7366 580.796 88.8312 581.164 88.0003C581.531 87.1693 582.088 86.4359 582.789 85.8585C584.259 84.6644 586.11 84.0405 588.002 84.1016C589.733 84.0543 591.433 84.561 592.856 85.5479C594.193 86.4738 595.245 87.7547 595.894 89.2463L593.875 90.2752C593.46 89.0759 592.669 88.0426 591.62 87.329C590.57 86.6154 589.318 86.2597 588.051 86.3148C586.766 86.256 585.5 86.6436 584.469 87.4117C584.02 87.7762 583.663 88.241 583.427 88.7688C583.191 89.2966 583.082 89.8725 583.11 90.45C583.077 90.96 583.171 91.4702 583.385 91.9346C583.598 92.3989 583.924 92.8028 584.333 93.1097C585.592 93.9021 586.959 94.5101 588.39 94.9152L590.254 95.5461C590.633 95.6723 591.225 95.8762 591.895 96.1577C592.442 96.3619 592.971 96.6119 593.477 96.9051C593.817 97.1284 594.234 97.4196 594.719 97.7982C595.146 98.0963 595.506 98.4798 595.777 98.9242C596.018 99.3561 596.213 99.8114 596.36 100.283C596.53 100.843 596.615 101.426 596.612 102.011C596.645 102.936 596.462 103.856 596.078 104.699C595.694 105.541 595.119 106.283 594.399 106.865C592.724 108.168 590.636 108.826 588.517 108.719V108.719Z" fill="#F8F8F8"/>
</svg>
